<svg width="174" height="24" viewBox="0 0 174 24" xmlns="http://www.w3.org/2000/svg" xmlns:xlink="http://www.w3.org/1999/xlink"><defs><path d="M55.8723858 11.9579463h-4.0673901v-8.477499h4.0673901c3.2603153 0 4.8904729 1.4138065 4.8904729 4.2374144 0 2.826278-1.6301576 4.2400846-4.8904729 4.2400846M33.6796972 0c3.5336439 0 6.2275214.968278 8.0828286 2.9084253l.2026943.2195716-2.4372324 2.4551371c-.7163622-.7636424-1.5060949-1.328364-2.369198-1.699505-.9858318-.4031818-2.1450847-.6047727-3.4790925-.6047727-2.4305624 0-4.4302402.8237192-5.9990335 2.4724926-1.5354431 1.6487735-2.3024976 3.7287646-2.3024976 6.2386383 0 2.5245592.7897326 4.5992101 2.370532 6.2239528 1.6354937 1.6808144 3.7699063 2.5218891 6.4019038 2.5218891 2.2248113 0 4.0525775-.447021 5.4844108-1.341063l.2638292-.1728715v-4.3709184h-6.2858451v-3.1800634h9.6302029v9.3332592c-.8964533.8090338-2.0570402 1.4765534-3.4790926 2.0012238C38.0272289 23.6675752 36.1556158 24 34.1506019 24c-3.6405075 0-6.6326872-1.1214329-8.973871-3.3642988-2.3411839-2.2535462-3.5124428-5.1358959-3.5124428-8.645714 0-3.4978027 1.1365747-6.366802 3.4110582-8.611003C27.3164795 1.1267732 30.1845965 0 33.6796972 0zm64.3375996.000534c3.0362022 0 5.2373152 1.2282361 6.6046732 3.6820382l-2.857445 1.7675919c-.863103-1.5272849-2.1117345-2.2895923-3.7472282-2.2895923-2.0170199 0-3.0255299.9091617-3.0255299 2.724815 0 1.4031263 1.1259027 2.5953163 3.377708 3.5819103l1.5127649.6902153c2.1290762.9412026 3.6525132 1.9184513 4.5716452 2.9264059C105.483739 14.2614229 106 15.7419814 106 17.5255938c0 2.0052289-.71236 3.6032709-2.134413 4.7914558-1.400708 1.1214329-3.221629 1.6821494-5.4614279 1.6821494-2.0957264 0-3.8993051-.4819492-5.41207-1.4471825-1.3099958-.8183791-2.3185057-1.9504923-3.0241959-3.3963398l2.9908457-1.6661289c.6496618 1.0653613 1.3273378 1.839684 2.033028 2.3216332.9191314.6394837 2.034362.9585581 3.3443578.9585581 2.7000323 0 4.0500483-1.0707014 4.0500483-3.2121043 0-.9425377-.330834-1.7328809-.991168-2.3696947-.549611-.5046448-1.5234372-1.0666963-2.9241455-1.6834844l-1.5461152-.6902153c-1.859607-.8290593-3.2042869-1.7155254-4.0327058-2.656728-.9644877-1.0987373-1.4460646-2.5005285-1.4460646-4.2040385 0-1.738221.6109757-3.162708 1.8315929-4.2721255C94.5101901.5612504 96.0896554.000534 98.0172968.000534zM56.0071206.2670078c2.542619 0 4.5596389.6007677 6.0497258 1.800968 1.6354936 1.2896478 2.4532405 3.1733882 2.4532405 5.649886 0 3.2740015-1.4902081 5.4759311-4.4718407 6.6094406l-.2838975.1031365 5.5121206 9.2665072h-4.1674406l-5.0585579-8.6777549h-4.2354751v8.6777549h-3.6458435V.2670078h7.8479684zM10.4359437.033109l10.2518506 23.66357H16.905882l-1.7302083-4.2721255H5.2266429L3.5124428 23.696679H0L10.0157312.033109h.4202125zm67.8318999 0l10.2505166 23.66357h-3.7805783l-1.7315423-4.2721255h-9.9490308l-1.7142001 4.2721255h-3.5111088L77.8476311.033109h.4202125zM10.150466 6.5761362l-.3695202 1.2442565c-.245124.8048618-.4687995 1.4676462-.6710268 1.9883532l-.0853556.2144615-2.5546251 6.3734773h7.3944057l-2.537283-6.3734773c-.2361194-.548701-.4882469-1.261612-.7563825-2.1373978-.2574635-.7382766-.3975343-1.1761695-.4202125-1.3096734zm67.8318999 0l-.3708542 1.2442565c-.2451239.8048618-.4687995 1.4676462-.6701331 1.9883532l-.0849153.2144615-2.5546251 6.3734773h7.3944057l-2.538617-6.3734773c-.2347854-.548701-.4869129-1.261612-.7563825-2.1373978-.2574635-.7382766-.3975343-1.1761695-.4188785-1.3096734z" id="a"/></defs><g fill="#FFF" fill-rule="evenodd"><path d="M122.754152 24h3.5072376V4.1546527H133V1h-17v3.1546527h6.754152V24zm12.0500781-.302633h16.5769408v-3.1916454h-7.6105708c-.379198 0-.8315746.0226641-1.3571297.0679924l-.6705818.0666593c0 .0119987.2009084-.1399845.6040558-.453283.445724-.3586268.8156084-.6879235 1.1056616-.9905566l3.9223711-4.1315409c2.6929711-2.8556827 4.0394567-5.5260527 4.0394567-8.0111099 0-2.0717698-.6705817-3.7569159-2.0117452-5.0554383-1.3744265-1.310521-3.1959075-1.965115-5.4644431-1.965115-2.2126536 0-4.0673976.6439285-5.5642319 1.9317854-1.4076895 1.2198645-2.3244173 2.8610154-2.748853 4.9207866l3.6030464.8225752c.7264636-2.8890123 2.2964764-4.3328519 4.7100385-4.3328519 2.5146816 0 3.7720224 1.2371959 3.7720224 3.7115876 0 1.8251306-1.1003395 3.8849017-3.302349 6.1806466l-9.6036888 10.1268748v.3026331zM164.1940723 24c2.7262342 0 4.9894476-.9692256 6.7883098-2.9063437.9499908-1.0185535 1.6817765-2.2610821 2.1953569-3.7275859C173.725913 15.786246 174 14.001111 174 12.0079991c0-1.9931119-.274087-3.7782468-.822261-5.3580713-.5135804-1.4665037-1.2453661-2.714365-2.1953569-3.7449173C169.1835199.9678926 166.9203065 0 164.1940723 0c-2.7382088 0-5.0067443.9678925-6.8056065 2.9050106-.9499909 1.0305521-1.6817765 2.2784135-2.195357 3.7449172-.5481739 1.5798245-.8209304 3.3649594-.8209304 5.3580713 0 1.9931119.2727565 3.7782469.8209304 5.3580713.5135805 1.4665038 1.2453661 2.7090324 2.195357 3.7275859C159.187328 23.0307744 161.4558635 24 164.1940723 24zm0-3.224975c-1.7988622 0-3.2291705-.6945895-4.2909249-2.0824353-1.1735181-1.5451616-1.7602771-3.7729141-1.7602771-6.6845906 0-2.922342.586759-5.1500944 1.7602771-6.6845906 1.0617544-1.3998445 2.4920627-2.0997667 4.2909249-2.0997667 1.788218 0 3.2118737.6999223 4.2736282 2.0997667 1.1735181 1.5344962 1.7602771 3.7622486 1.7602771 6.6845906 0 2.9116765-.586759 5.139429-1.7602771 6.6845906-1.0617545 1.3878458-2.4854102 2.0824353-4.2736282 2.0824353z"/><use xlink:href="#a"/></g></svg>