<svg width="158" height="28" viewBox="0 0 158 28" xmlns="http://www.w3.org/2000/svg" xmlns:xlink="http://www.w3.org/1999/xlink"><defs><path id="a" d="M.0000233 0H21.006591v28H.0000233z"/><path id="c" d="M.0739665.0009683h15.9982696V28H.0739665z"/><path id="e" d="M0 28h156.382399V0H0z"/></defs><g fill="none" fill-rule="evenodd"><g transform="translate(135.375808)"><mask id="b" fill="#fff"><use xlink:href="#a"/></mask><path d="M13.9159562 9.1292833c-.0238075.2249334-.0491321.4530167-.0745734.6904334-.0624363.73255-.093596 1.3573-.093596 1.8680666v8.2441334H7.370886c-.5256316 0-1.1063471.0406-1.7449475.1202833l-.7876305.0968333c0 .0141167.2247706-.1968166.6759455-.6294166.512094-.4999167.9245234-.9513 1.2371715-1.3574167l5.4955576-6.88835c.3883885-.4841667.7875137-1.0355333 1.2014602-1.65095.3244352-.4873167.4868861-.7435167.4868861-.7684833l-.0193727.2748666zm3.9015075 10.8031V0h-.3365723L.0000234 20.6211833v2.8334834h13.7482302V28h4.0692101v-4.5453333h3.1891506v-3.5222834h-3.1891506z" fill="#141414" mask="url(#b)"/></g><g transform="translate(24.274283)"><mask id="d" fill="#fff"><use xlink:href="#c"/></mask><path d="M11.7053159 19.8441017c0 2.8714-1.2954064 4.3064-3.8829516 4.3064-.9664199 0-1.8065668-.2710167-2.5157727-.8143334-.578148-.4631666-1.1404244-1.183-1.6914974-2.16265l-3.5411277 2.16265c.7123569 1.4033834 1.6835616 2.5012167 2.9197995 3.2950167 1.4055743.9121 3.0828339 1.36885 5.0297948 1.36885 2.4534531 0 4.3781236-.6616167 5.7726112-1.9847333 1.5157422-1.40175 2.2760641-3.4321 2.2760641-6.0909334v-19.9234h-4.3669202v19.8431334z" fill="#141414" mask="url(#d)"/></g><path d="M15.494123 21.055195c-1.8639848 1.8775167-4.5538788 2.8163333-8.0678146 2.8163333H4.367632v-20.0795h3.0586764c3.5139358 0 6.2038298.9325167 8.0678146 2.7974334 1.7569679 1.7593333 2.6355103 4.1739833 2.6355103 7.2423166 0 3.0557334-.8785424 5.4639667-2.6355103 7.2234167m3.0582096-17.2639833c-2.7489459-2.5264167-6.3651138-3.7912-10.8455862-3.7912H.0000117V27.641495h7.7067347c4.5075476 0 8.134919-1.2758667 10.8870158-3.8291167 2.7089166-2.5121833 4.0651255-5.84045 4.0651255-9.9814166 0-4.1519334-1.3705634-7.4991-4.1065551-10.03975" fill="#141414"/><mask id="f" fill="#fff"><use xlink:href="#e"/></mask><path fill="#141414" mask="url(#f)" d="M47.0240707 27.64055h4.3253738V.0005833h-4.3253738zm39.208942-6.381585c-1.8007316 1.9597667-4.1056215 2.93965-6.9145528 2.93965-2.8104485 0-5.1337774-.9798833-6.9730212-2.93965-1.7992145-1.9194-2.6994636-4.3363833-2.6994636-7.2496667 0-2.92565.9002491-5.3489333 2.6994636-7.2682166 1.8392438-1.9598834 4.1625727-2.9397667 6.9730212-2.9397667 2.8089313 0 5.1138212.9798833 6.9145528 2.9397667 1.7990978 1.9192833 2.6995803 4.3425666 2.6995803 7.2682166 0 2.9132834-.9004825 5.3302667-2.6995803 7.2496667m-6.9145528-21.259c-3.9235644 0-7.2242833 1.3127333-9.9053078 3.9383167-2.7057657 2.6643166-4.0592903 6.0223333-4.0592903 10.0710166 0 4.0363167 1.3535246 7.3943334 4.0592903 10.0711334 2.6810245 2.6131 5.9817434 3.9195333 9.9053078 3.9195333 3.8974228 0 7.1858879-1.3064333 9.8669125-3.9195333 2.7056489-2.6768 4.0592902-6.0348167 4.0592902-10.0711334 0-4.0486833-1.3536413-7.4067-4.0592902-10.0710166C86.5043478 1.3126983 83.2158827-.000035 79.3184599-.000035m32.3077751 15.3221017L98.7114996.0777h-.4470903v27.5692667h4.0207777V13.4804833c0-.6143666-.026258-1.4434-.078658-2.4886166l-.07714-1.4107334.874107 1.2537c.582816.8492167 1.086975 1.5164334 1.515626 1.9986167l6.797266 8.2700333h.465646l6.817339-8.2700333c.439388-.4821833.963502-1.1618833 1.572577-2.0375833l.835595-1.2147334-.077141 1.4107334c-.052516 1.0452166-.078658 1.87425-.078658 2.4886166v14.1664834h4.020778V.0777h-.427017l-12.819272 15.2443667z"/></g></svg>