<svg width="195" height="32" viewBox="0 0 195 32" xmlns="http://www.w3.org/2000/svg" xmlns:xlink="http://www.w3.org/1999/xlink"><defs><path d="M0 32h21.290612v-4.3159437h-9.7746449c-.4870234 0-1.0680337.0306479-1.743031.0919437l-.8612625.0901408c0 .0162254.258037-.1892957.7758197-.6129577.5724661-.4849577 1.0475275-.9302535 1.4200577-1.339493l5.0377016-5.5869295c3.4587205-3.8616338 5.1880807-7.4726761 5.1880807-10.8331268 0-2.8015775-.8612624-5.080338-2.5837872-6.8362817C16.9842999.8851831 14.6448788 0 11.7312827 0 8.8911674 0 6.507316.8707606 4.5848553 2.6122817c-1.8079675 1.6495775-2.985368 3.868845-3.5304924 6.6541972l4.6275766 1.112338c.9330343-3.9067042 2.949482-5.859155 6.0493432-5.859155 3.2297341 0 4.8446011 1.6730142 4.8446011 5.0190423 0 2.4680564-1.4132223 5.2534085-4.2413756 8.3578592L0 31.5907606V32z" id="a"/><path d="M46.0958247.00108v22.7697086c0 3.0386013-.8686411 5.358955-2.6004486 6.9610611C41.9022592 31.2439499 39.7032834 32 36.9002736 32c-2.224524 0-4.140644-.5220346-5.746535-1.5643036-1.4124542-.9072601-2.5219789-2.1619433-3.3358737-3.7658495l4.0457505-2.4715638c.6295823 1.1196742 1.2719387 1.9423287 1.9325439 2.4715638.810245.6210411 1.7701298.9306616 2.8741799.9306616 2.9562994 0 4.436274-1.6399086 4.436274-4.921526V.0010801h4.9892115zM8.8050275 0c5.1187777 0 9.2502974 1.4454958 12.3909092 4.332887 3.1260129 2.9035924 4.6917567 6.7288458 4.6917567 11.4739602 0 4.7325135-1.5493199 8.5361655-4.6443099 11.4073557-3.1442616 2.9179934-7.2885554 4.37609-12.438356 4.37609H0V0zm49.8616392.00072v31.5884928H53.724902V.00072h4.9417647zM8.4845793 4.3337871H4.9899414v22.9479203h3.4946379c4.0147276 0 7.087819-1.0728711 9.2174495-3.2186132 2.0073638-2.0107332 3.0110457-4.7631156 3.0110457-8.2553469 0-3.5066324-1.0036819-6.2662152-3.0110457-8.2769484-2.1296305-2.1313412-5.2027219-3.1970118-9.2174495-3.1970118z" id="b"/></defs><g fill="#FFF" fill-rule="evenodd"><use xlink:href="#a" transform="translate(173.333333)"/><use xlink:href="#b"/><path d="M74.666667 31.6853807h4.6788465V15.4038322c0-.7061058-.0304986-1.6589017-.0914959-2.8601754l-.0897018-1.621362 1.0172186 1.4408134c.6781457.9760349 1.2647955 1.7429194 1.7617436 2.2970784l7.9116997 9.5029328h.541799l7.9332282-9.5029328c.5113003-.554159 1.1212726-1.3353444 1.8299169-2.3417686l.9723677-1.3961232-.0914959 1.621362c-.0592032 1.2012737-.0897018 2.1540696-.0897018 2.8601754v16.2815485h4.6788465V0h-.496948L90.215579 17.520362 75.1869375 0h-.5202705v31.6853807zm38.5663969 0h4.8582501V.3146193h-4.8582501v31.3707614zM148.5486671 32h.6099723V.3146193h-4.5424997v17.2504329c0 .7364952.0663793 1.7053796.202726 2.9048657 0 .2252388.0143523.4433272.044851.6542651 0 .178761.0143522.3521591.0448509.5166192l.0466449.4504776-1.0172185-1.2835037c-.7839939-.9599464-1.4172887-1.703592-1.8998844-2.2291492L124.6808091 0h-.6548233v31.6853807h4.5424998V14.3902575c0-.7954863-.0448509-1.7929724-.1345528-2.9942461l-.2045201-1.5319815 1.0172186 1.2602648c.7839938.9456455 1.4316409 1.6964416 1.9447352 2.2523882L148.5486671 32zm6.5930831-.3146193h4.8582501V.3146193h-4.8582501v31.3707614z"/></g></svg>