<svg width="208" height="24" viewBox="0 0 208 24" xmlns="http://www.w3.org/2000/svg" xmlns:xlink="http://www.w3.org/1999/xlink"><defs><path d="M34.5718685.00081v17.0772814c0 2.278951-.6514808 4.0192163-1.9503364 5.2207959C31.4266944 23.4329624 29.7774626 24 27.6752052 24c-1.668393 0-3.105483-.3915259-4.3099013-1.1732277-1.0593406-.6804451-1.8914841-1.6214574-2.5019052-2.8243871l3.0343128-1.8536728c.4721868.8397556.9539541 1.4567465 1.4494079 1.8536728.6076838.4657808 1.3275975.6979962 2.155635.6979962 2.2172246 0 3.3272055-1.2299315 3.3272055-3.6911445V.0008101h3.7419086zM6.6037707 0c3.8390832 0 6.9377229 1.0841218 9.2931819 3.2496653 2.3445096 2.1776943 3.5188174 5.0466343 3.5188174 8.6054701 0 3.5493851-1.1619899 6.4021241-3.4832324 8.5555168-2.3581962 2.188495-5.4664165 3.2820674-9.328767 3.2820674H0V0zM44 .00054v23.6913696h-3.7063235V.00054H44zM6.3634345 3.2503403H3.742456v17.2109403h2.6209784c3.0110456 0 5.3158642-.8046533 6.9130871-2.41396 1.5055229-1.5080499 2.2582843-3.5723366 2.2582843-6.1915102 0-2.6299742-.7527614-4.6996613-2.2582843-6.2077112-1.5972229-1.598506-3.9020415-2.3977589-6.9130871-2.3977589z" id="a"/><path d="M0 24h15.967959v-3.2369577H8.6369753c-.3652675 0-.8010253.0229859-1.3072733.0689577l-.6459468.0676056c0 .012169.1935277-.1419718.5818648-.4597183.4293496-.3637183.7856456-.6976901 1.0650433-1.0046197l3.7782761-4.1901972C14.7029798 12.3488451 16 9.6405634 16 7.1202254c0-2.1011831-.6459468-3.8102536-1.9378404-5.1272113C12.7382249.6638873 10.9836591 0 8.798462 0 6.6683755 0 4.880487.6530704 3.4386415 1.9592113 2.0826658 3.1963943 1.1996155 4.860845.7907722 6.9498592l3.4706825.8342535c.6997757-2.9300282 2.2121115-4.3943662 4.5370073-4.3943662 2.4223006 0 3.6334508 1.2547605 3.6334508 3.7642817 0 1.8510422-1.0599166 3.9400563-3.1810317 6.2683943L0 23.6930704V24z" id="b"/></defs><g fill="#FFF" fill-rule="evenodd"><use xlink:href="#a"/><path d="M56 23.7002667h3.6453333v-8.2973334h3.896c2.5426667 0 4.5693334-.6266666 6.0813334-1.8813333C71.224 12.1882667 72.024 10.2962667 72.024 7.8442667c0-2.4746667-.8-4.368-2.4013333-5.6773334C68.1106667.9242667 66.084.3016 63.5413333.3016H56v23.3986667zm3.6453333-11.4893334v-8.7h3.7453334c3.2813333 0 4.9213333 1.444 4.9213333 4.3333334 0 2.912-1.64 4.3666666-4.9213333 4.3666666h-3.7453334zm27.3573334 11.792c3.3706666 0 6.2146666-1.12 8.532-3.36C97.876 18.3482667 99.0453333 15.4696 99.0453333 12.0096c0-3.4706667-1.1693333-6.3493333-3.5106666-8.6333333-2.3173334-2.2506667-5.1613334-3.376-8.532-3.376-3.3933334 0-6.2493334 1.1253333-8.5666667 3.376-2.34 2.284-3.5106667 5.1626666-3.5106667 8.6333333 0 3.46 1.1706667 6.3386667 3.5106667 8.6333333 2.3173333 2.24 5.1733333 3.36 8.5666667 3.36zm0-3.2586666c-2.4306667 0-4.44-.84-6.0306667-2.52-1.556-1.6453334-2.3346667-3.7173334-2.3346667-6.2146667 0-2.508.7786667-4.5853333 2.3346667-6.232 1.5906667-1.6786667 3.6-2.5186667 6.0306667-2.5186667 2.4293333 0 4.4226666.84 5.98 2.5186667 1.556 1.6466667 2.3346666 3.724 2.3346666 6.232 0 2.4973333-.7786666 4.5693333-2.3346666 6.2146667-1.5573334 1.68-3.5506667 2.52-5.98 2.52zM114.212 24.0029333c4.2893333 0 7.52-1.6626666 9.692-4.9893333l-2.788-1.948c-.796 1.164-1.736 2.0546667-2.8226667 2.6706667-1.164.672-2.5253333 1.008-4.0813333 1.008-2.408 0-4.3946667-.84-5.9626667-2.52-1.556-1.6453334-2.3346666-3.7173334-2.3346666-6.2146667 0-2.508.7786666-4.5853333 2.3346666-6.232 1.568-1.6453333 3.5546667-2.4693333 5.9626667-2.4693333 2.9333333 0 5.1226667 1.12 6.568 3.36L123.568 4.6696c-2.072-3.0906667-5.1906667-4.636-9.356-4.636-3.3706667 0-6.204 1.1253333-8.4986667 3.376-2.3413333 2.284-3.5106666 5.1506667-3.5106666 8.6 0 3.46 1.1693333 6.3386667 3.5106666 8.6333333 2.2946667 2.24 5.128 3.36 8.4986667 3.36zm13.3426667-.3026666H131.2v-7.1213334l2.6533333-3.192 7.1893334 10.3133334h4.3666666l-9.12-13.0346667L144.52.3016h-4.0986667l-7.6426666 9.508c-.292.3586667-.6106667.8506667-.9573334 1.4773333l-.8906666 1.6466667.168-1.68c.068-.716.1013333-1.316.1013333-1.7973333V.3016h-3.6453333v23.3986667zm21.12 0h15.3360003v-3.192H152.32V13.5216h9.944v-3.1413333h-9.944V3.5109333h11.22V.3016h-14.8653333v23.3986667zm25.0346663 0h3.612V3.5109333h6.937334V.3016H166.756v3.2093333h6.953333v20.1893334z"/><use xlink:href="#b" transform="translate(192)"/></g></svg>