<svg width="116" height="24" viewBox="0 0 116 24" xmlns="http://www.w3.org/2000/svg" xmlns:xlink="http://www.w3.org/1999/xlink"><defs><path d="M0 24h15.967959v-3.2369577H8.6369753c-.3652675 0-.8010253.0229859-1.3072733.0689577l-.6459468.0676056c0 .012169.1935277-.1419718.5818648-.4597183.4293496-.3637183.7856456-.6976901 1.0650433-1.0046197l3.7782761-4.1901972C14.7029798 12.3488451 16 9.6405634 16 7.1202254c0-2.1011831-.6459468-3.8102536-1.9378404-5.1272113C12.7382249.6638873 10.9836591 0 8.798462 0 6.6683755 0 4.880487.6530704 3.4386415 1.9592113 2.0826658 3.1963943 1.1996155 4.860845.7907722 6.9498592l3.4706825.8342535c.6997757-2.9300282 2.2121115-4.3943662 4.5370073-4.3943662 2.4223006 0 3.6334508 1.2547605 3.6334508 3.7642817 0 1.8510422-1.0599166 3.9400563-3.1810317 6.2683943L0 23.6930704V24z" id="a"/><path d="M34.5718685.00081v17.0772814c0 2.278951-.6514808 4.0192163-1.9503364 5.2207959C31.4266944 23.4329624 29.7774626 24 27.6752052 24c-1.668393 0-3.105483-.3915259-4.3099013-1.1732277-1.0593406-.6804451-1.8914841-1.6214574-2.5019052-2.8243871l3.0343128-1.8536728c.4721868.8397556.9539541 1.4567465 1.4494079 1.8536728.6076838.4657808 1.3275975.6979962 2.155635.6979962 2.2172246 0 3.3272055-1.2299315 3.3272055-3.6911445V.0008101h3.7419086zM6.6037707 0c3.8390832 0 6.9377229 1.0841218 9.2931819 3.2496653 2.3445096 2.1776943 3.5188174 5.0466343 3.5188174 8.6054701 0 3.5493851-1.1619899 6.4021241-3.4832324 8.5555168-2.3581962 2.188495-5.4664165 3.2820674-9.328767 3.2820674H0V0zM44 .00054v23.6913696h-3.7063235V.00054H44zM6.3634345 3.2503403H3.742456v17.2109403h2.6209784c3.0110456 0 5.3158642-.8046533 6.9130871-2.41396 1.5055229-1.5080499 2.2582843-3.5723366 2.2582843-6.1915102 0-2.6299742-.7527614-4.6996613-2.2582843-6.2077112-1.5972229-1.598506-3.9020415-2.3977589-6.9130871-2.3977589z" id="b"/></defs><g fill="#FFF" fill-rule="evenodd"><use xlink:href="#a" transform="translate(100)"/><use xlink:href="#b"/><path d="M56 23.6969461h3.6682512v-8.6777549h4.2586061l5.0877866 8.6777549h4.1915203l-5.5439699-9.2665072c3.1892586-1.0987373 4.7845587-3.336263 4.7845587-6.7112422 0-2.4778327-.8238135-4.361573-2.4687571-5.651221C68.4792992.8691106 66.4506249.268343 63.8933144.268343H56v23.428603zm3.6682512-11.7389998v-8.476164h4.08955c3.2791535 0 4.9187303 1.4124715 4.9187303 4.2374145 0 2.826278-1.6395768 4.2387495-4.9187304 4.2387495h-4.08955zM83.3602699 24c2.2540826 0 4.0841831-.5607165 5.4929847-1.6821494C90.2848654 21.1296657 91 19.5316237 91 17.5250598c0-1.7836124-.5179023-3.2628358-1.5550487-4.4403404-.9231005-1.0092897-2.4566817-1.9852034-4.5967185-2.926406l-1.5215058-.6902153c-2.2648164-.986594-3.3972246-2.180119-3.3972246-3.5819102 0-1.8156533 1.0143372-2.724815 3.0416699-2.724815 1.6449436 0 2.9021314.7623074 3.7702216 2.2882572l2.8726136-1.7662569C88.2400905 1.2282361 86.0249176 0 82.9711723 0c-1.9374377 0-3.5260293.5607165-4.7657748 1.6821494-1.2290117 1.1094176-1.8421758 2.5339044-1.8421758 4.2707905 0 1.704845.4843594 3.1066362 1.4530782 4.2053735.8345473.9412026 2.1856552 1.8276687 4.0573488 2.656728l1.5550487.6902153c1.4074599.6167881 2.3882542 1.1775046 2.9410412 1.6821494.6641493.6381488.9968948 1.428492.9968948 2.3710297 0 2.1414029-1.3578164 3.2121043-4.0734493 3.2121043-1.3189067 0-2.4405812-.3190743-3.3636817-.9585581-.7097677-.4819492-1.3927011-1.2562719-2.0461167-2.3216332l-3.0081269 1.6661289c.7097677 1.4458475 1.7241048 2.5779607 3.0430115 3.3963398C79.4384344 23.5180508 81.253776 24 83.3602699 24z"/></g></svg>