<svg width="484" height="24" viewBox="0 0 484 24" xmlns="http://www.w3.org/2000/svg" xmlns:xlink="http://www.w3.org/1999/xlink"><defs><path d="M83.3006716.0008968l14.4642019 18.639369 1.0384092 1.4861274-.049018-.5970132c-.0322488-.452244-.0477282-.8122455-.0477282-1.0812858V.2584068h1.2667303V23h-.4063341L85.0885413 4.3580687c-.1728532-.2254814-.3998843-.5432052-.6823832-.9518902l-.3418365-.532956.049018.5970132.0490181 1.0979407v18.1730324h-1.2680202V.0008968h.4063341zM116.405544.0002562c4.018193 0 7.013455 1.4207891 8.987077 4.2610861l-1.040989.7584374c-1.798189-2.5289789-4.446455-3.7934683-7.946088-3.7934683-2.915285 0-5.34168.9800754-7.281764 2.937664-1.937503 1.9486205-2.907545 4.3968873-2.907545 7.3448004 0 2.937664.970042 5.3859308 2.907545 7.3422383 1.940084 1.9588697 4.366479 2.9376639 7.281764 2.9376639 3.595089 0 6.336232-1.3336712 8.220848-4.0010137l1.025509.7238465c-2.079398 2.991472-5.162377 4.4878486-9.246357 4.4878486-3.260991 0-5.991814-1.0607875-8.191178-3.1798002-2.263861-2.18307-3.395147-4.9541852-3.395147-8.3107834 0-3.3681284 1.131286-6.143087 3.395147-8.3274382 2.199364-2.121575 4.930187-3.1810814 8.191178-3.1810814zM42.9767262.2581506l7.3294921 18.3511115c.1186754.3023501.2618598.7328146.4231034 1.2913935l.2115517.7584375.1934924-.7584375c.1625336-.5585789.3031381-.9890434.4231034-1.2913935L58.8869613.2581506h1.3660564l-9.1509006 22.7415932h-.4063341L41.5152136.2581506h1.4615126zM152.616486.2582787c3.887908 0 6.928318 1.012104 9.117362 3.035031C163.912573 5.2842078 165 8.0207322 165 11.5080071c0 3.4757445-1.083557 6.2084254-3.250672 8.1993237-2.189044 2.0229269-5.232035 3.0337498-9.132842 3.0337498h-4.82699V.2582787zm-125.0796794 0c3.8879073 0 6.9270279 1.012104 9.1160719 3.035031 2.1774345 1.9908982 3.2648618 4.7274226 3.2648618 8.2146975 0 3.4757445-1.0835574 6.2084254-3.2493824 8.1993237-2.189044 2.0229269-5.2333244 3.0337498-9.1315513 3.0337498h-4.8282804V.2582787zM143.095757.2576381v1.1953077h-11.848184v9.3933503h10.613703v1.1786528h-10.613703v9.5227459h12.319016v1.1927454h-13.683783V.2576382h13.212951zM9.5533648 0l9.1844393 22.740312h-1.399595l-2.4212349-6.0188161H3.7537526L1.3647664 22.740312H0L9.1483207 0h.4050441zm60.1854244 0l9.1831493 22.740312h-1.3970151l-2.4212349-6.0188161H63.937887l-2.3876962 6.0188161h-1.3660564L69.3324551 0h.4063341zm82.7164538 1.485615h-3.299691v20.0294106h3.299691c3.628627 0 6.417498-.9313919 8.367901-2.7928947 1.831728-1.7641357 2.746302-4.1688437 2.746302-7.2141237 0-3.0568104-.914574-5.4615184-2.746302-7.2141238-1.950403-1.871752-4.739274-2.8082684-8.367901-2.8082684zm-125.0809701 0h-3.3009803v20.0294106h3.3009803c3.6273376 0 6.418788-.9313919 8.3666115-2.7928947 1.833018-1.7641357 2.7475921-4.1688437 2.7475921-7.2141237 0-3.0568104-.9145741-5.4615184-2.7475921-7.2141238-1.9478235-1.871752-4.7392739-2.8082684-8.3666115-2.8082684zm-18.0324598.9677764l-.2257411.7584375c-.1625336.5175823-.3031381.9313919-.4218135 1.2439911L4.2568329 15.5428431h10.1893099L10.0100069 4.5045035c-.1315748-.3356598-.2760492-.7661243-.4385828-1.2926746-.0219291-.0960859-.049018-.1921717-.0812668-.2895387l-.1483442-.4688988zm60.1867143 0l-.2270311.7584375c-.1625336.5175823-.304428.9313919-.4231033 1.2439911l-4.4361358 11.0870231h10.1880199L70.1941413 4.5045035c-.1302849-.3356598-.2747592-.7661243-.4385828-1.2926746-.0206392-.0960859-.0477281-.1921717-.0799769-.2895387l-.1470542-.4688988z" id="a"/><path d="M18.2514872 0l14.4140082 18.641377 1.0361836 1.4849042-.0488523-.5970365c-.0321397-.4522616-.0488524-.8122772-.0488524-1.081328V.2575201h1.2637326V23h-.4049601L20.032026 4.3573418c-.1722687-.2254902-.3985321-.5432264-.6800758-.9519274l-.3393952-.5329768.0488524.5970365.0475667 1.0979836v18.1737411h-1.262447V0h.4049601zM145.069562 0c1.393577 0 2.602029.3279857 3.627928.9839572.820205.527852 1.538848 1.2811943 2.154645 2.2600268l-1.069609.6944073c-.539947-.8609626-1.12746-1.5066845-1.765112-1.9371658-.820205-.5381016-1.803679-.8071524-2.947852-.8071524-2.806438 0-4.2103 1.2645388-4.2103 3.7936163 0 1.8820744 1.306157 3.4271947 3.919757 4.6315174l2.08908.9519273c3.606073 1.6360852 5.408467 3.864082 5.408467 6.6827095 0 1.7321747-.626081 3.1312388-1.878244 4.1959113C149.168015 22.4823975 147.57003 23 145.604366 23c-1.965663 0-3.622786-.4689171-4.971367-1.4041889-1.091464-.7533423-1.955379-1.7808601-2.591745-3.0838347l1.166028-.5650067c.626081 1.173574 1.365294 2.0665664 2.218925 2.6802585 1.112033.7956216 2.494039 1.194073 4.14602 1.194073 1.522135 0 2.785868-.4087009 3.789912-1.2261029 1.058038-.8404635 1.586415-1.9538213 1.586415-3.3413547 0-2.2382465-1.537563-4.0677919-4.61526-5.4873552l-2.089079-.9532085c-3.141977-1.4515932-4.712965-3.3836342-4.712965-5.7935606 0-1.5066845.54509-2.7327875 1.635268-3.67959C142.203987.4458555 143.505002 0 145.069562 0zM13.1669882.25752v1.1953543H1.3601517v9.3937166h10.5752436v1.1774176H1.3601517v9.5231172h12.276076v1.1940731H0V.2575201h13.1669882zm41.18637 0v1.1953543h-7.1748644v21.2883245h-1.3601517V1.4528743h-7.1581517V.2575201h15.6931678zm16.9466158 0v1.1953543H59.4931375v9.3937166h10.5765292v1.1774176H59.4931375v9.5231172h12.276076v1.1940731H58.1329858V.2575201H71.299974zm10.720515 0c2.4181903 0 4.3131464.559882 5.6848684 1.6796458 1.4244311 1.1505125 2.1366466 2.7968471 2.1366466 4.939004 0 3.2811386-1.6249827 5.3630793-4.8736626 6.2458222l5.6681557 9.6192068h-1.6198404l-5.474032-9.3616868-.7456408.0653409-5.4573193.0153744v9.2809715h-1.3601517V.2575201zm19.141114 0c5.258053 0 7.88708 2.2382465 7.88708 6.7147394 0 4.4547125-2.629027 6.6827094-7.88708 6.6827094h-4.6152597v9.08623h-1.3614372V.2575201zm18.122928 0c2.418191 0 4.313147.559882 5.684869 1.6796458 1.425716 1.1505125 2.137932 2.7968471 2.137932 4.939004 0 3.2811386-1.624983 5.3630793-4.874948 6.2458222l5.668155 9.6192068h-1.618554l-5.475318-9.3616868-.744355.0653409-5.45732.0153744v9.2809715h-1.361437V.2575201zm14.588848 0v22.4836788h-1.360151V.2575201h1.360151zm36.239429 0v1.1953543h-11.805551v9.3937166h10.575244v1.1774176h-10.575244v9.5231172h12.276076v1.1940731H156.94582V.2575201h13.166988zm-69.096477 1.1953543h-4.4699877v11.0067402h4.4699877c4.426279 0 6.64006-1.8282642 6.64006-5.4873551 0-3.67959-2.213781-5.519385-6.64006-5.519385zm-19.1256863 0h-4.5509801v10.8132799h4.5509801c4.3722834 0 6.5590679-1.7962344 6.5590679-5.3899844 0-3.6155303-2.1867845-5.4232955-6.5590679-5.4232955zm37.2653273 0h-4.55098v10.8132799h4.55098c4.372284 0 6.559068-1.7962344 6.559068-5.3899844 0-3.6155303-2.186784-5.4232955-6.559068-5.4232955z" id="b"/><path d="M0 24h15.967959v-3.2369577H8.6369753c-.3652675 0-.8010253.0229859-1.3072733.0689577l-.6459468.0676056c0 .012169.1935277-.1419718.5818648-.4597183.4293496-.3637183.7856456-.6976901 1.0650433-1.0046197l3.7782761-4.1901972C14.7029798 12.3488451 16 9.6405634 16 7.1202254c0-2.1011831-.6459468-3.8102536-1.9378404-5.1272113C12.7382249.6638873 10.9836591 0 8.798462 0 6.6683755 0 4.880487.6530704 3.4386415 1.9592113 2.0826658 3.1963943 1.1996155 4.860845.7907722 6.9498592l3.4706825.8342535c.6997757-2.9300282 2.2121115-4.3943662 4.5370073-4.3943662 2.4223006 0 3.6334508 1.2547605 3.6334508 3.7642817 0 1.8510422-1.0599166 3.9400563-3.1810317 6.2683943L0 23.6930704V24z" id="c"/><path d="M90.1601397 0c4.2288793 0 7.3951241 1.5473104 9.4987343 4.6419314L96.8269869 6.643155c-1.4660296-2.2428658-3.6887632-3.3642988-6.6668472-3.3642988-2.4447362 0-4.463065.8250542-6.0536326 2.4724926-1.5810919 1.6487735-2.3716378 3.7287646-2.3716378 6.2386383 0 2.5005285.7905459 4.5765144 2.3716378 6.2239528 1.5905676 1.6808144 3.6088964 2.5232242 6.0536326 2.5232242 1.5797382 0 2.9604862-.337765 4.1435978-1.0106247 1.1018911-.6167882 2.0575853-1.5085943 2.8643753-2.6740836L100 19.0029482C97.7935105 22.3338711 94.5135571 24 90.1601397 24c-3.4220893 0-6.2986477-1.1214329-8.6296753-3.3642988-2.3756988-2.2989376-3.564225-5.1799522-3.564225-8.645714 0-3.4524114 1.1885262-6.3227457 3.564225-8.6096679C83.861492 1.1267731 86.7380504 0 90.1601397 0zM49.284583.2683429l5.3551365 12.5814096c.2951011.6381487.6186293 1.5246147.9719383 2.656728.3072842.9638983.4602494 1.4685431.4602494 1.5139345 0-.068087.1367211-.5607165.4088097-1.4805585.3533091-1.1321133.682252-2.0292596.9895361-2.690104L62.740108.2683429h3.598067L56.2086283 23.931913h-.4602493L45.3453901.2683429h3.9391929zM.3925656.0320409l11.3397317 13.0860544L22.9881012.0320409h.3749679v23.6649052h-3.5303833V11.5374089c0-.5273405.0230125-1.2389164.0676838-2.1360627l.0690374-1.2108806-.7336917 1.0426656c-.5347014.7516271-.9949507 1.3350392-1.380748 1.7489014l-5.9859488 7.0970685h-.4088098L5.490504 10.9820326c-.3749679-.4138622-.8176194-.987929-1.3293084-1.7168604L3.393662 8.1904656l.0676837 1.2108806c.046025.8971463.0690374 1.6087222.0690374 2.1360627v12.1595372H0V.0320409h.3925656zm36.9323028 0l10.4016352 23.6649052h-3.8363137l-1.7570695-4.2721255H32.0374156l-1.7394718 4.2721255h-3.5628714L36.8984609.0320409h.4264075zM73.438198.268343v23.428603h-3.6657507V.2683429h3.6657507zM37.035182 6.5764032l-.3763215 1.2429215c-.2842717.921177-.5401162 1.6554486-.7675335 2.2041497l-2.5909331 6.3748123h7.503418l-2.5760426-6.3748123c-.2382467-.548701-.4940912-1.262947-.7675335-2.1360627-.2612592-.7396117-.403395-1.1788396-.4250538-1.3110085z" id="d"/></defs><g fill="#FFF" fill-rule="evenodd"><use xlink:href="#a" transform="translate(318 .5)"/><use xlink:href="#b" transform="translate(138 .5)"/><use xlink:href="#c" transform="translate(110)"/><use xlink:href="#d"/></g></svg>